<svg xmlns="http://www.w3.org/2000/svg" width="256" height="256" viewBox="0 0 100 100"><rect width="100" height="100" rx="20" fill="#7d6ee7"></rect><path fill="#fff" d="M22.10 42.30L22.10 42.30Q24.40 42.30 26.40 43.05Q28.40 43.80 29.87 45.30Q31.35 46.80 32.17 49.10Q33.00 51.40 33.00 54.50L33.00 54.50Q33.00 57.65 32.15 59.95Q31.30 62.25 29.77 63.75Q28.25 65.25 26.10 65.97Q23.95 66.70 21.40 66.70L21.40 66.70Q18.95 66.70 16.97 66.13Q15.00 65.55 13.75 64.80L13.75 64.80Q12.70 64.15 12.30 63.52Q11.90 62.90 11.90 61.85L11.90 61.85L11.90 33.65Q12.15 33.55 12.67 33.42Q13.20 33.30 13.80 33.30L13.80 33.30Q15.90 33.30 15.90 35.10L15.90 35.10L15.90 44.05Q17.00 43.35 18.52 42.82Q20.05 42.30 22.10 42.30ZM21.50 45.60L21.50 45.60Q19.75 45.60 18.32 46.22Q16.90 46.85 15.90 47.70L15.90 47.70L15.90 61.85Q16.65 62.40 18.07 62.90Q19.50 63.40 21.40 63.40L21.40 63.40Q23.10 63.40 24.47 62.88Q25.85 62.35 26.85 61.25Q27.85 60.15 28.40 58.47Q28.95 56.80 28.95 54.50L28.95 54.50Q28.95 52.20 28.40 50.50Q27.85 48.80 26.85 47.72Q25.85 46.65 24.47 46.13Q23.10 45.60 21.50 45.60ZM60.70 54.50L60.70 54.50Q60.70 57.30 59.90 59.55Q59.10 61.80 57.62 63.40Q56.15 65 54.05 65.85Q51.95 66.70 49.35 66.70L49.35 66.70Q46.75 66.70 44.65 65.85Q42.55 65 41.05 63.40Q39.55 61.80 38.75 59.55Q37.95 57.30 37.95 54.50L37.95 54.50Q37.95 51.70 38.77 49.45Q39.60 47.20 41.10 45.60Q42.60 44 44.70 43.15Q46.80 42.30 49.35 42.30L49.35 42.30Q51.90 42.30 54.00 43.15Q56.10 44 57.57 45.60Q59.05 47.20 59.87 49.45Q60.70 51.70 60.70 54.50ZM49.35 45.60L49.35 45.60Q45.95 45.60 44.00 47.95Q42.05 50.30 42.05 54.50L42.05 54.50Q42.05 58.75 43.97 61.07Q45.90 63.40 49.35 63.40L49.35 63.40Q52.80 63.40 54.70 61.05Q56.60 58.70 56.60 54.50L56.60 54.50Q56.60 50.30 54.67 47.95Q52.75 45.60 49.35 45.60ZM77.20 42.30L77.20 42.30Q79.50 42.30 81.50 43.05Q83.50 43.80 84.97 45.30Q86.45 46.80 87.27 49.10Q88.10 51.40 88.10 54.50L88.10 54.50Q88.10 57.65 87.25 59.95Q86.40 62.25 84.88 63.75Q83.35 65.25 81.20 65.97Q79.05 66.70 76.50 66.70L76.50 66.70Q74.05 66.70 72.07 66.13Q70.10 65.55 68.85 64.80L68.85 64.80Q67.80 64.15 67.40 63.52Q67.00 62.90 67.00 61.85L67.00 61.85L67.00 33.65Q67.25 33.55 67.77 33.42Q68.30 33.30 68.90 33.30L68.90 33.30Q71.00 33.30 71.00 35.10L71.00 35.10L71.00 44.05Q72.10 43.35 73.63 42.82Q75.15 42.30 77.20 42.30ZM76.60 45.60L76.60 45.60Q74.85 45.60 73.42 46.22Q72.00 46.85 71.00 47.70L71.00 47.70L71.00 61.85Q71.75 62.40 73.17 62.90Q74.60 63.40 76.50 63.40L76.50 63.40Q78.20 63.40 79.57 62.88Q80.95 62.35 81.95 61.25Q82.95 60.15 83.50 58.47Q84.05 56.80 84.05 54.50L84.05 54.50Q84.05 52.20 83.50 50.50Q82.95 48.80 81.95 47.72Q80.95 46.65 79.57 46.13Q78.20 45.60 76.60 45.60Z"></path></svg>